<?xml version="1.0" encoding="utf-8"?>
<!-- Generator: Adobe Illustrator 23.1.1, SVG Export Plug-In . SVG Version: 6.00 Build 0)  -->
<svg version="1.1" id="Layer_1" xmlns="http://www.w3.org/2000/svg" xmlns:xlink="http://www.w3.org/1999/xlink" x="0px" y="0px"
	 viewBox="0 0 285.2 257.6" enable-background="new 0 0 285.2 257.6" xml:space="preserve">
<g>
	<path fill="none" stroke="#5397D1" stroke-width="15" stroke-miterlimit="10" d="M194,7.5l-102.9,0c-11.5,0-22.1,6.1-27.8,16.1
		l-51.5,89.1c-5.7,9.9-5.7,22.2,0,32.1L63.3,234c5.7,9.9,16.4,16.1,27.8,16.1l102.9,0c11.5,0,22.1-6.1,27.8-16.1l51.5-89.1
		c5.7-9.9,5.7-22.2,0-32.1l-51.5-89.1C216.1,13.6,205.5,7.5,194,7.5z"/>
</g>
<g>
	<g>
		<g>
			<path fill="#FFFFFF" stroke="#FFFFFF" stroke-miterlimit="10" d="M164.2,208.4v-11.1c11-0.1,17.4-7.8,17.4-21v-19.9
				c0-13.9,4.1-21.4,13.3-24.6c1.5-0.5,2.5-1.9,2.5-3.5c0-1.6-1-3-2.5-3.5c-8.9-3.1-13.3-11-13.3-24.2v-20c0-20.4-13-20.4-17.2-20.4
				h-0.1V49.1h2.7c19.2,0,30.2,11,30.2,30.1v21.6c0,12.6,3.4,20.6,19.6,21.3v12.9c-16.3,0.8-19.6,8.8-19.6,21.2v22.3
				c0,27-21.1,29.9-30.2,29.9H164.2z"/>
		</g>
		<g>
			<path fill="#FFFFFF" stroke="#FFFFFF" stroke-miterlimit="10" d="M164.2,208.4v-11.1c11-0.1,17.4-7.8,17.4-21v-19.9
				c0-13.9,4.1-21.4,13.3-24.6c1.5-0.5,2.5-1.9,2.5-3.5c0-1.6-1-3-2.5-3.5c-8.9-3.1-13.3-11-13.3-24.2v-20c0-20.4-13-20.4-17.2-20.4
				h-0.1V49.1h2.7c19.2,0,30.2,11,30.2,30.1v21.6c0,12.6,3.4,20.6,19.6,21.3v12.9c-16.3,0.8-19.6,8.8-19.6,21.2v22.3
				c0,27-21.1,29.9-30.2,29.9H164.2z"/>
		</g>
	</g>
	<g>
		<g>
			<path fill="#FFFFFF" stroke="#FFFFFF" stroke-miterlimit="10" d="M121,208.4v-11.1c-11-0.1-17.4-7.8-17.4-21v-19.9
				c0-13.9-4.1-21.4-13.3-24.6c-1.5-0.5-2.5-1.9-2.5-3.5c0-1.6,1-3,2.5-3.5c8.9-3.1,13.3-11,13.3-24.2v-20c0-20.4,13-20.4,17.2-20.4
				h0.1V49.1h-2.7c-19.2,0-30.2,11-30.2,30.1v21.6c0,12.6-3.4,20.6-19.6,21.3v12.9c16.3,0.8,19.6,8.8,19.6,21.2v22.3
				c0,27,21.1,29.9,30.2,29.9H121z"/>
		</g>
		<g>
			<path fill="#FFFFFF" stroke="#FFFFFF" stroke-miterlimit="10" d="M121,208.4v-11.1c-11-0.1-17.4-7.8-17.4-21v-19.9
				c0-13.9-4.1-21.4-13.3-24.6c-1.5-0.5-2.5-1.9-2.5-3.5c0-1.6,1-3,2.5-3.5c8.9-3.1,13.3-11,13.3-24.2v-20c0-20.4,13-20.4,17.2-20.4
				h0.1V49.1h-2.7c-19.2,0-30.2,11-30.2,30.1v21.6c0,12.6-3.4,20.6-19.6,21.3v12.9c16.3,0.8,19.6,8.8,19.6,21.2v22.3
				c0,27,21.1,29.9,30.2,29.9H121z"/>
		</g>
	</g>
</g>
</svg>
